<svg width="800" height="400" viewBox="0 0 800 400" xmlns="http://www.w3.org/2000/svg"><mask id="satori_om-id"><rect x="0" y="0" width="800" height="400" fill="#fff"/></mask><rect x="0" y="0" width="800" height="400" fill="#10192e"/><mask id="satori_om-id-0"><rect x="271" y="150" width="258" height="40" fill="#fff"/></mask><path fill="#fff" d="M292.8 163.4L287.5 163.4Q287.3 161.9 286.2 161.0Q285.0 160.2 283.0 160.2L283.0 160.2Q281.6 160.2 280.7 160.5Q279.8 160.9 279.3 161.6Q278.8 162.3 278.8 163.1L278.8 163.1Q278.8 163.8 279.1 164.3Q279.4 164.8 280 165.2Q280.6 165.6 281.3 165.9Q282.1 166.2 282.9 166.3L282.9 166.3L285.3 166.9Q287.0 167.3 288.4 167.9Q289.9 168.6 290.9 169.5Q292.0 170.4 292.5 171.7Q293.1 173.0 293.1 174.6L293.1 174.6Q293.1 177.0 291.9 178.8Q290.7 180.5 288.4 181.5Q286.2 182.5 283.0 182.5L283.0 182.5Q279.8 182.5 277.5 181.5Q275.1 180.5 273.8 178.6Q272.5 176.7 272.4 173.9L272.4 173.9L277.8 173.9Q277.9 175.2 278.5 176.1Q279.2 176.9 280.4 177.4Q281.5 177.8 282.9 177.8L282.9 177.8Q284.3 177.8 285.4 177.4Q286.4 177.0 287.0 176.3Q287.6 175.5 287.6 174.6L287.6 174.6Q287.6 173.7 287.0 173.1Q286.5 172.5 285.5 172.1Q284.5 171.7 283.1 171.3L283.1 171.3L280.3 170.6Q276.9 169.8 275.0 168.1Q273.1 166.4 273.1 163.5L273.1 163.5Q273.1 161.1 274.4 159.3Q275.7 157.5 277.9 156.5Q280.2 155.5 283.0 155.5L283.0 155.5Q286.0 155.5 288.1 156.5Q290.3 157.5 291.5 159.3Q292.7 161.1 292.8 163.4L292.8 163.4ZM302.3 182.5L302.3 182.5Q300.5 182.5 299.0 181.8Q297.5 181.1 296.7 179.8Q295.8 178.5 295.8 176.6L295.8 176.6Q295.8 175.0 296.4 173.8Q297.0 172.7 298.1 172.1Q299.1 171.4 300.4 171.0Q301.7 170.7 303.2 170.6L303.2 170.6Q304.9 170.4 306.0 170.2Q307.0 170.1 307.5 169.7Q308.0 169.4 308.0 168.8L308.0 168.8L308.0 168.7Q308.0 167.5 307.2 166.8Q306.4 166.2 305.0 166.2L305.0 166.2Q303.6 166.2 302.7 166.8Q301.8 167.5 301.6 168.4L301.6 168.4L296.5 168.0Q296.9 166.2 298.0 164.9Q299.2 163.6 300.9 162.9Q302.7 162.2 305.1 162.2L305.1 162.2Q306.7 162.2 308.2 162.6Q309.7 163.0 310.9 163.8Q312.0 164.6 312.7 165.8Q313.4 167.1 313.4 168.8L313.4 168.8L313.4 182.1L308.2 182.1L308.2 179.4L308.1 179.4Q307.6 180.3 306.8 181.0Q306.0 181.7 304.9 182.1Q303.8 182.5 302.3 182.5ZM303.9 178.7L303.9 178.7Q305.1 178.7 306.0 178.2Q306.9 177.7 307.5 176.9Q308.0 176.1 308.0 175.1L308.0 175.1L308.0 173.0Q307.7 173.1 307.3 173.3Q306.9 173.4 306.3 173.5Q305.8 173.6 305.2 173.7Q304.7 173.8 304.2 173.9L304.2 173.9Q303.3 174.0 302.5 174.3Q301.8 174.6 301.4 175.1Q301.0 175.7 301.0 176.4L301.0 176.4Q301.0 177.5 301.8 178.1Q302.7 178.7 303.9 178.7ZM317.6 155.9L323.1 155.9L323.1 182.1L317.6 182.1L317.6 155.9ZM332.9 182.1L327.4 182.1L327.4 162.4L332.9 162.4L332.9 182.1ZM330.2 159.9L330.2 159.9Q329.0 159.9 328.1 159.1Q327.2 158.3 327.2 157.2L327.2 157.2Q327.2 156.0 328.1 155.2Q329.0 154.4 330.2 154.4L330.2 154.4Q331.4 154.4 332.2 155.2Q333.1 156.0 333.1 157.2L333.1 157.2Q333.1 158.3 332.2 159.1Q331.4 159.9 330.2 159.9ZM342.7 182.1L337.2 182.1L337.2 162.4L342.4 162.4L342.4 165.9L342.6 165.9Q343.3 164.2 344.7 163.2Q346.1 162.2 348.1 162.2L348.1 162.2Q350.1 162.2 351.6 163.2Q353.0 164.2 353.4 165.9L353.4 165.9L353.6 165.9Q354.3 164.2 355.8 163.2Q357.4 162.2 359.6 162.2L359.6 162.2Q362.3 162.2 364.0 163.9Q365.8 165.7 365.8 168.9L365.8 168.9L365.8 182.1L360.3 182.1L360.3 170.0Q360.3 168.3 359.5 167.5Q358.6 166.7 357.3 166.7L357.3 166.7Q355.8 166.7 355.0 167.6Q354.1 168.6 354.1 170.1L354.1 170.1L354.1 182.1L348.9 182.1L348.9 169.8Q348.9 168.4 348.0 167.5Q347.2 166.7 345.9 166.7L345.9 166.7Q345.0 166.7 344.2 167.1Q343.5 167.6 343.1 168.4Q342.7 169.2 342.7 170.3L342.7 170.3L342.7 182.1Z M384.0 182.1L378.5 182.1L378.5 155.9L384.0 155.9L384.0 166.7L395.3 166.7L395.3 155.9L400.8 155.9L400.8 182.1L395.3 182.1L395.3 171.3L384.0 171.3L384.0 182.1ZM417.9 173.7L417.9 173.7L417.9 162.4L423.3 162.4L423.3 182.1L418.1 182.1L418.1 178.5L417.9 178.5Q417.2 180.2 415.7 181.3Q414.1 182.3 411.9 182.3L411.9 182.3Q409.9 182.3 408.4 181.4Q406.9 180.5 406.1 178.9Q405.3 177.3 405.3 174.9L405.3 174.9L405.3 162.4L410.7 162.4L410.7 174.0Q410.7 175.7 411.6 176.7Q412.6 177.7 414.1 177.7L414.1 177.7Q415.1 177.7 415.9 177.3Q416.8 176.8 417.3 175.9Q417.9 175.0 417.9 173.7ZM444.0 168.0L444.0 168.0L439.0 168.4Q438.9 167.7 438.4 167.2Q438.0 166.7 437.3 166.4Q436.7 166.1 435.7 166.1L435.7 166.1Q434.4 166.1 433.6 166.6Q432.7 167.1 432.7 168.0L432.7 168.0Q432.7 168.7 433.3 169.2Q433.8 169.7 435.2 170.0L435.2 170.0L438.8 170.7Q441.6 171.3 443.0 172.6Q444.4 173.9 444.4 176.0L444.4 176.0Q444.4 177.9 443.3 179.4Q442.2 180.8 440.2 181.7Q438.2 182.5 435.7 182.5L435.7 182.5Q431.8 182.5 429.5 180.8Q427.2 179.2 426.8 176.4L426.8 176.4L432.1 176.1Q432.4 177.3 433.3 177.9Q434.2 178.5 435.7 178.5L435.7 178.5Q437.1 178.5 438.0 178.0Q438.9 177.4 438.9 176.5L438.9 176.5Q438.9 175.8 438.3 175.3Q437.7 174.8 436.4 174.6L436.4 174.6L433.0 173.9Q430.1 173.3 428.7 171.9Q427.3 170.5 427.3 168.3L427.3 168.3Q427.3 166.4 428.3 165.0Q429.4 163.7 431.2 162.9Q433.1 162.2 435.6 162.2L435.6 162.2Q439.3 162.2 441.5 163.8Q443.6 165.3 444.0 168.0ZM464.2 168.0L464.2 168.0L459.2 168.4Q459.1 167.7 458.7 167.2Q458.2 166.7 457.6 166.4Q456.9 166.1 455.9 166.1L455.9 166.1Q454.7 166.1 453.8 166.6Q452.9 167.1 452.9 168.0L452.9 168.0Q452.9 168.7 453.5 169.2Q454.1 169.7 455.4 170.0L455.4 170.0L459.0 170.7Q461.8 171.3 463.2 172.6Q464.7 173.9 464.7 176.0L464.7 176.0Q464.7 177.9 463.5 179.4Q462.4 180.8 460.4 181.7Q458.5 182.5 455.9 182.5L455.9 182.5Q452.0 182.5 449.7 180.8Q447.4 179.2 447.0 176.4L447.0 176.4L452.4 176.1Q452.6 177.3 453.5 177.9Q454.5 178.5 455.9 178.5L455.9 178.5Q457.4 178.5 458.2 178.0Q459.1 177.4 459.1 176.5L459.1 176.5Q459.1 175.8 458.5 175.3Q457.9 174.8 456.6 174.6L456.6 174.6L453.2 173.9Q450.3 173.3 448.9 171.9Q447.5 170.5 447.5 168.3L447.5 168.3Q447.5 166.4 448.6 165.0Q449.6 163.7 451.5 162.9Q453.3 162.2 455.8 162.2L455.8 162.2Q459.6 162.2 461.7 163.8Q463.8 165.3 464.2 168.0ZM473.7 182.5L473.7 182.5Q471.8 182.5 470.3 181.8Q468.9 181.1 468.0 179.8Q467.2 178.5 467.2 176.6L467.2 176.6Q467.2 175.0 467.8 173.8Q468.4 172.7 469.4 172.1Q470.4 171.4 471.8 171.0Q473.1 170.7 474.5 170.6L474.5 170.6Q476.3 170.4 477.3 170.2Q478.4 170.1 478.8 169.7Q479.3 169.4 479.3 168.8L479.3 168.8L479.3 168.7Q479.3 167.5 478.5 166.8Q477.8 166.2 476.4 166.2L476.4 166.2Q474.9 166.2 474.0 166.8Q473.2 167.5 472.9 168.4L472.9 168.4L467.9 168.0Q468.2 166.2 469.4 164.9Q470.5 163.6 472.3 162.9Q474.1 162.2 476.4 162.2L476.4 162.2Q478.1 162.2 479.6 162.6Q481.1 163.0 482.2 163.8Q483.4 164.6 484.1 165.8Q484.8 167.1 484.8 168.8L484.8 168.8L484.8 182.1L479.6 182.1L479.6 179.4L479.4 179.4Q479.0 180.3 478.2 181.0Q477.4 181.7 476.3 182.1Q475.1 182.5 473.7 182.5ZM475.3 178.7L475.3 178.7Q476.5 178.7 477.4 178.2Q478.3 177.7 478.8 176.9Q479.3 176.1 479.3 175.1L479.3 175.1L479.3 173.0Q479.1 173.1 478.6 173.3Q478.2 173.4 477.7 173.5Q477.1 173.6 476.6 173.7Q476.0 173.8 475.6 173.9L475.6 173.9Q474.6 174.0 473.9 174.3Q473.2 174.6 472.8 175.1Q472.4 175.7 472.4 176.4L472.4 176.4Q472.4 177.5 473.2 178.1Q474.0 178.7 475.3 178.7ZM494.4 182.1L489.0 182.1L489.0 162.4L494.4 162.4L494.4 182.1ZM491.7 159.9L491.7 159.9Q490.5 159.9 489.6 159.1Q488.8 158.3 488.8 157.2L488.8 157.2Q488.8 156.0 489.6 155.2Q490.5 154.4 491.7 154.4L491.7 154.4Q492.9 154.4 493.8 155.2Q494.7 156.0 494.7 157.2L494.7 157.2Q494.7 158.3 493.8 159.1Q492.9 159.9 491.7 159.9ZM504.2 170.7L504.2 170.7L504.2 182.1L498.8 182.1L498.8 162.4L504.0 162.4L504.0 165.9L504.2 165.9Q504.8 164.2 506.4 163.2Q507.9 162.2 510.1 162.2L510.1 162.2Q512.1 162.2 513.7 163.1Q515.2 164.0 516.0 165.6Q516.9 167.3 516.9 169.6L516.9 169.6L516.9 182.1L511.4 182.1L511.4 170.6Q511.4 168.7 510.5 167.7Q509.6 166.7 507.9 166.7L507.9 166.7Q506.8 166.7 506.0 167.2Q505.2 167.7 504.7 168.6Q504.2 169.5 504.2 170.7ZM526.6 182.1L521.2 182.1L521.2 162.4L526.6 162.4L526.6 182.1ZM523.9 159.9L523.9 159.9Q522.7 159.9 521.8 159.1Q521.0 158.3 521.0 157.2L521.0 157.2Q521.0 156.0 521.8 155.2Q522.7 154.4 523.9 154.4L523.9 154.4Q525.1 154.4 526.0 155.2Q526.8 156.0 526.8 157.2L526.8 157.2Q526.8 158.3 526.0 159.1Q525.1 159.9 523.9 159.9Z "/><mask id="satori_om-id-1"><rect x="270" y="206" width="260" height="44" fill="#fff"/></mask><path x="270" y="206" width="260" height="44" fill="rgba(74, 222, 128, 0.2)" d="M292,206 h216 a22,22 0 0 1 22,22 v0 a22,22 0 0 1 -22,22 h-216 a22,22 0 0 1 -22,-22 v0 a22,22 0 0 1 22,-22"/><path fill="#86efac" d="M296.8 233.0L295.4 233.0L295.4 221.3L302.4 221.3L302.4 222.6L296.8 222.6L296.8 226.5L301.9 226.5L301.9 227.8L296.8 227.8L296.8 233.0ZM309.6 229.4L309.6 229.4L309.6 224.2L310.9 224.2L310.9 233.0L309.6 233.0L309.6 231.5L309.5 231.5Q309.2 232.2 308.5 232.6Q307.9 233.1 306.9 233.1L306.9 233.1Q306.1 233.1 305.4 232.7Q304.8 232.4 304.4 231.6Q304.1 230.9 304.1 229.8L304.1 229.8L304.1 224.2L305.4 224.2L305.4 229.7Q305.4 230.7 305.9 231.2Q306.5 231.8 307.3 231.8L307.3 231.8Q307.8 231.8 308.3 231.5Q308.9 231.3 309.2 230.8Q309.6 230.2 309.6 229.4ZM313.4 221.3L314.7 221.3L314.7 233.0L313.4 233.0L313.4 221.3ZM317.2 221.3L318.5 221.3L318.5 233.0L317.2 233.0L317.2 221.3ZM327.1 226.2L327.1 226.2L325.9 226.5Q325.8 226.2 325.6 226.0Q325.4 225.7 325.0 225.5Q324.6 225.3 324.0 225.3L324.0 225.3Q323.2 225.3 322.7 225.7Q322.2 226.0 322.2 226.6L322.2 226.6Q322.2 227.1 322.5 227.4Q322.9 227.7 323.7 227.9L323.7 227.9L325.0 228.2Q326.1 228.5 326.7 229.0Q327.3 229.6 327.3 230.5L327.3 230.5Q327.3 231.3 326.9 231.9Q326.4 232.5 325.7 232.8Q324.9 233.2 323.9 233.2L323.9 233.2Q322.6 233.2 321.7 232.6Q320.8 232.0 320.6 230.9L320.6 230.9L321.8 230.6Q322.0 231.3 322.5 231.6Q323.0 232.0 323.9 232.0L323.9 232.0Q324.8 232.0 325.4 231.6Q325.9 231.2 325.9 230.6L325.9 230.6Q325.9 230.2 325.6 229.8Q325.3 229.5 324.6 229.4L324.6 229.4L323.2 229.0Q322.0 228.8 321.4 228.2Q320.8 227.6 320.8 226.7L320.8 226.7Q320.8 225.9 321.3 225.4Q321.7 224.8 322.4 224.5Q323.1 224.1 324.0 224.1L324.0 224.1Q325.3 224.1 326.1 224.7Q326.8 225.3 327.1 226.2ZM328.6 224.2L333.1 224.2L333.1 225.4L328.6 225.4L328.6 224.2ZM329.9 230.8L329.9 222.2L331.3 222.2L331.3 230.5Q331.3 231.0 331.4 231.3Q331.6 231.6 331.8 231.7Q332.1 231.8 332.4 231.8L332.4 231.8Q332.6 231.8 332.8 231.8Q332.9 231.7 333.0 231.7L333.0 231.7L333.3 232.9Q333.1 233.0 332.9 233.0Q332.6 233.1 332.3 233.1L332.3 233.1Q331.7 233.1 331.2 232.8Q330.6 232.6 330.3 232.1Q329.9 231.6 329.9 230.8L329.9 230.8ZM337.7 233.2L337.7 233.2Q336.9 233.2 336.2 232.9Q335.5 232.5 335.1 232.0Q334.7 231.4 334.7 230.5L334.7 230.5Q334.7 229.7 335.0 229.3Q335.3 228.8 335.8 228.5Q336.3 228.3 336.9 228.1Q337.5 228.0 338.1 227.9L338.1 227.9Q338.9 227.8 339.4 227.8Q339.9 227.7 340.1 227.6Q340.4 227.5 340.4 227.1L340.4 227.1L340.4 227.1Q340.4 226.2 339.9 225.8Q339.4 225.3 338.5 225.3L338.5 225.3Q337.6 225.3 337.0 225.7Q336.5 226.2 336.3 226.6L336.3 226.6L335.0 226.2Q335.3 225.4 335.9 224.9Q336.5 224.5 337.1 224.3Q337.8 224.1 338.5 224.1L338.5 224.1Q338.9 224.1 339.4 224.2Q340.0 224.3 340.5 224.6Q341.0 224.9 341.4 225.6Q341.7 226.2 341.7 227.2L341.7 227.2L341.7 233.0L340.4 233.0L340.4 231.8L340.3 231.8Q340.2 232.1 339.8 232.4Q339.5 232.7 339.0 233.0Q338.5 233.2 337.7 233.2ZM337.9 232.0L337.9 232.0Q338.7 232.0 339.3 231.7Q339.8 231.4 340.1 230.9Q340.4 230.4 340.4 229.8L340.4 229.8L340.4 228.6Q340.3 228.7 340.0 228.8Q339.7 228.9 339.3 228.9Q339.0 229.0 338.6 229.0Q338.3 229.1 338.0 229.1L338.0 229.1Q337.5 229.2 337.1 229.3Q336.6 229.5 336.3 229.8Q336.1 230.1 336.1 230.6L336.1 230.6Q336.1 231.3 336.6 231.6Q337.1 232.0 337.9 232.0ZM347.7 233.2L347.7 233.2Q346.5 233.2 345.6 232.6Q344.7 232.0 344.2 231.0Q343.8 230.0 343.8 228.7L343.8 228.7Q343.8 227.3 344.2 226.3Q344.7 225.3 345.6 224.7Q346.5 224.1 347.7 224.1L347.7 224.1Q348.6 224.1 349.3 224.5Q350.1 224.8 350.6 225.4Q351.0 226.0 351.1 226.9L351.1 226.9L349.8 226.9Q349.6 226.3 349.1 225.8Q348.6 225.3 347.7 225.3L347.7 225.3Q346.9 225.3 346.3 225.7Q345.7 226.2 345.4 226.9Q345.1 227.6 345.1 228.6L345.1 228.6Q345.1 229.6 345.4 230.4Q345.7 231.1 346.3 231.5Q346.9 232.0 347.7 232.0L347.7 232.0Q348.2 232.0 348.7 231.8Q349.1 231.6 349.4 231.2Q349.7 230.9 349.8 230.4L349.8 230.4L351.1 230.4Q351.0 231.2 350.6 231.8Q350.1 232.4 349.4 232.8Q348.7 233.2 347.7 233.2ZM355.9 228.4L354.3 229.8L354.3 228.1L354.6 228.1L358.4 224.2L360.1 224.2L356 228.4L355.9 228.4ZM354.4 233.0L353.1 233.0L353.1 221.3L354.4 221.3L354.4 233.0ZM360.3 233.0L358.6 233.0L355.2 228.7L356.2 227.7L360.3 233.0Z M374.8 224.2L373.4 224.2Q373.3 223.4 372.6 222.9Q371.8 222.4 370.8 222.4L370.8 222.4Q370 222.4 369.4 222.7Q368.8 222.9 368.5 223.4Q368.2 223.8 368.2 224.4L368.2 224.4Q368.2 224.8 368.4 225.2Q368.7 225.5 369.0 225.7Q369.4 225.9 369.7 226.1Q370.1 226.2 370.5 226.3L370.5 226.3L371.6 226.6Q372.1 226.7 372.7 226.9Q373.2 227.2 373.7 227.5Q374.2 227.9 374.6 228.4Q374.9 229.0 374.9 229.8L374.9 229.8Q374.9 230.8 374.4 231.5Q373.9 232.3 373.0 232.7Q372.0 233.2 370.7 233.2L370.7 233.2Q369.5 233.2 368.5 232.8Q367.6 232.4 367.1 231.7Q366.6 230.9 366.5 230.0L366.5 230.0L368.0 230.0Q368.0 230.6 368.4 231.1Q368.8 231.5 369.4 231.7Q370.0 231.9 370.7 231.9L370.7 231.9Q371.5 231.9 372.2 231.6Q372.8 231.4 373.2 230.9Q373.5 230.4 373.5 229.8L373.5 229.8Q373.5 229.2 373.2 228.9Q372.9 228.5 372.4 228.3Q371.8 228.0 371.2 227.9L371.2 227.9L369.8 227.5Q368.4 227.1 367.6 226.3Q366.8 225.6 366.8 224.4L366.8 224.4Q366.8 223.5 367.4 222.7Q367.9 222.0 368.8 221.6Q369.7 221.2 370.8 221.2L370.8 221.2Q371.9 221.2 372.8 221.6Q373.7 222.0 374.2 222.7Q374.7 223.4 374.8 224.2L374.8 224.2ZM380.6 233.2L380.6 233.2Q379.4 233.2 378.5 232.6Q377.6 232.0 377.1 231.0Q376.6 230.0 376.6 228.7L376.6 228.7Q376.6 227.3 377.1 226.3Q377.6 225.3 378.5 224.7Q379.4 224.1 380.6 224.1L380.6 224.1Q381.8 224.1 382.7 224.7Q383.6 225.3 384.0 226.3Q384.5 227.3 384.5 228.7L384.5 228.7Q384.5 230.0 384.0 231.0Q383.6 232.0 382.7 232.6Q381.8 233.2 380.6 233.2ZM380.6 232.0L380.6 232.0Q381.5 232.0 382.1 231.5Q382.6 231.0 382.9 230.3Q383.2 229.5 383.2 228.7L383.2 228.7Q383.2 227.8 382.9 227.0Q382.6 226.3 382.1 225.8Q381.5 225.3 380.6 225.3L380.6 225.3Q379.7 225.3 379.1 225.8Q378.5 226.3 378.3 227.0Q378.0 227.8 378.0 228.7L378.0 228.7Q378.0 229.5 378.3 230.3Q378.5 231.0 379.1 231.5Q379.7 232.0 380.6 232.0ZM385.8 224.2L390.5 224.2L390.5 225.4L385.8 225.4L385.8 224.2ZM388.5 233.0L387.2 233.0L387.2 223.0Q387.2 222.3 387.5 221.8Q387.9 221.3 388.4 221.0Q389.0 220.8 389.6 220.8L389.6 220.8Q390.1 220.8 390.4 220.9Q390.8 221.0 390.9 221.0L390.9 221.0L390.5 222.2Q390.4 222.1 390.2 222.1Q390.1 222.0 389.8 222.0L389.8 222.0Q389.1 222.0 388.8 222.4Q388.5 222.7 388.5 223.4L388.5 223.4L388.5 233.0ZM391.6 224.2L396.2 224.2L396.2 225.4L391.6 225.4L391.6 224.2ZM393.0 230.8L393.0 222.2L394.3 222.2L394.3 230.5Q394.3 231.0 394.5 231.3Q394.6 231.6 394.9 231.7Q395.2 231.8 395.5 231.8L395.5 231.8Q395.7 231.8 395.8 231.8Q396.0 231.7 396.0 231.7L396.0 231.7L396.3 232.9Q396.2 233.0 395.9 233.0Q395.7 233.1 395.3 233.1L395.3 233.1Q394.8 233.1 394.2 232.8Q393.7 232.6 393.3 232.1Q393.0 231.6 393.0 230.8L393.0 230.8ZM401.5 233.0L400.2 233.0L397.5 224.2L398.9 224.2L400.8 230.9L400.9 230.9L402.8 224.2L404.2 224.2L406.0 230.9L406.1 230.9L408 224.2L409.4 224.2L406.8 233.0L405.4 233.0L403.5 226.3L403.4 226.3L401.5 233.0ZM413.8 233.2L413.8 233.2Q412.9 233.2 412.2 232.9Q411.6 232.5 411.2 232.0Q410.8 231.4 410.8 230.5L410.8 230.5Q410.8 229.7 411.1 229.3Q411.4 228.8 411.9 228.5Q412.4 228.3 413.0 228.1Q413.6 228.0 414.2 227.9L414.2 227.9Q415.0 227.8 415.5 227.8Q415.9 227.7 416.2 227.6Q416.4 227.5 416.4 227.1L416.4 227.1L416.4 227.1Q416.4 226.2 416.0 225.8Q415.5 225.3 414.6 225.3L414.6 225.3Q413.6 225.3 413.1 225.7Q412.5 226.2 412.3 226.6L412.3 226.6L411.0 226.2Q411.4 225.4 411.9 224.9Q412.5 224.5 413.2 224.3Q413.9 224.1 414.5 224.1L414.5 224.1Q414.9 224.1 415.5 224.2Q416.0 224.3 416.6 224.6Q417.1 224.9 417.4 225.6Q417.8 226.2 417.8 227.2L417.8 227.2L417.8 233.0L416.4 233.0L416.4 231.8L416.3 231.8Q416.2 232.1 415.9 232.4Q415.6 232.7 415.0 233.0Q414.5 233.2 413.8 233.2ZM414.0 232.0L414.0 232.0Q414.8 232.0 415.3 231.7Q415.8 231.4 416.1 230.9Q416.4 230.4 416.4 229.8L416.4 229.8L416.4 228.6Q416.3 228.7 416.0 228.8Q415.8 228.9 415.4 228.9Q415.0 229.0 414.7 229.0Q414.3 229.1 414.1 229.1L414.1 229.1Q413.6 229.2 413.1 229.3Q412.7 229.5 412.4 229.8Q412.1 230.1 412.1 230.6L412.1 230.6Q412.1 231.3 412.6 231.6Q413.2 232.0 414.0 232.0ZM421.5 233.0L420.2 233.0L420.2 224.2L421.5 224.2L421.5 225.6L421.6 225.6Q421.8 224.9 422.5 224.5Q423.1 224.1 423.9 224.1L423.9 224.1Q424.0 224.1 424.2 224.1Q424.5 224.1 424.6 224.1L424.6 224.1L424.6 225.5Q424.5 225.5 424.3 225.4Q424.0 225.4 423.7 225.4L423.7 225.4Q423.1 225.4 422.6 225.7Q422.1 225.9 421.8 226.4Q421.5 226.9 421.5 227.5L421.5 227.5L421.5 233.0ZM429.5 233.2L429.5 233.2Q428.3 233.2 427.4 232.6Q426.5 232.0 426.0 231.0Q425.5 230.0 425.5 228.7L425.5 228.7Q425.5 227.3 426.0 226.3Q426.5 225.3 427.3 224.7Q428.2 224.1 429.4 224.1L429.4 224.1Q430.1 224.1 430.8 224.4Q431.4 224.6 432.0 225.1Q432.5 225.6 432.8 226.4Q433.2 227.3 433.2 228.5L433.2 228.5L433.2 229.1L426.4 229.1L426.4 227.9L431.8 227.9Q431.8 227.2 431.5 226.6Q431.2 226.0 430.7 225.7Q430.1 225.3 429.4 225.3L429.4 225.3Q428.6 225.3 428.0 225.7Q427.4 226.1 427.1 226.8Q426.8 227.4 426.8 228.1L426.8 228.1L426.8 228.9Q426.8 229.9 427.2 230.6Q427.5 231.2 428.1 231.6Q428.7 232.0 429.5 232.0L429.5 232.0Q430.1 232.0 430.5 231.8Q430.9 231.7 431.2 231.3Q431.6 231.0 431.7 230.6L431.7 230.6L433.0 231.0Q432.8 231.6 432.3 232.1Q431.9 232.6 431.1 232.9Q430.4 233.2 429.5 233.2Z M447.3 233.0L440.2 233.0L440.2 221.3L447.2 221.3L447.2 222.6L441.6 222.6L441.6 226.5L446.8 226.5L446.8 227.8L441.6 227.8L441.6 231.7L447.3 231.7L447.3 233.0ZM450.9 227.7L450.9 227.7L450.9 233.0L449.5 233.0L449.5 224.2L450.8 224.2L450.8 225.6L451.0 225.6Q451.3 224.9 451.9 224.5Q452.5 224.1 453.5 224.1L453.5 224.1Q454.4 224.1 455.1 224.5Q455.7 224.9 456.1 225.6Q456.5 226.3 456.5 227.4L456.5 227.4L456.5 233.0L455.1 233.0L455.1 227.5Q455.1 226.5 454.6 225.9Q454.0 225.3 453.1 225.3L453.1 225.3Q452.5 225.3 452.0 225.6Q451.5 225.9 451.2 226.4Q450.9 227.0 450.9 227.7ZM462.4 236.4L462.4 236.4Q461.5 236.4 460.8 236.2Q460.1 235.9 459.6 235.5Q459.1 235.1 458.9 234.7L458.9 234.7L459.9 233.9Q460.1 234.2 460.4 234.5Q460.7 234.8 461.2 235.0Q461.6 235.2 462.4 235.2L462.4 235.2Q463.5 235.2 464.2 234.7Q464.9 234.2 464.9 233.1L464.9 233.1L464.9 231.4L464.8 231.4Q464.6 231.6 464.3 232.0Q464.1 232.3 463.6 232.6Q463.1 232.8 462.2 232.8L462.2 232.8Q461.1 232.8 460.3 232.3Q459.5 231.8 459.0 230.9Q458.5 229.9 458.5 228.6L458.5 228.6Q458.5 227.2 459.0 226.2Q459.4 225.2 460.3 224.7Q461.1 224.1 462.2 224.1L462.2 224.1Q463.1 224.1 463.6 224.4Q464.1 224.7 464.4 225.1Q464.6 225.4 464.8 225.6L464.8 225.6L464.9 225.6L464.9 224.2L466.2 224.2L466.2 233.2Q466.2 234.4 465.7 235.1Q465.2 235.8 464.3 236.1Q463.5 236.4 462.4 236.4ZM462.4 231.6L462.4 231.6Q463.2 231.6 463.8 231.3Q464.3 230.9 464.6 230.2Q464.9 229.5 464.9 228.5L464.9 228.5Q464.9 227.6 464.6 226.9Q464.3 226.2 463.8 225.7Q463.2 225.3 462.4 225.3L462.4 225.3Q461.5 225.3 461.0 225.8Q460.4 226.2 460.1 226.9Q459.8 227.7 459.8 228.5L459.8 228.5Q459.8 229.5 460.1 230.1Q460.4 230.8 461.0 231.2Q461.5 231.6 462.4 231.6ZM470 233.0L468.7 233.0L468.7 224.2L470 224.2L470 233.0ZM469.3 222.8L469.3 222.8Q468.9 222.8 468.7 222.5Q468.4 222.3 468.4 221.9L468.4 221.9Q468.4 221.5 468.7 221.2Q468.9 221.0 469.3 221.0L469.3 221.0Q469.7 221.0 470.0 221.2Q470.3 221.5 470.3 221.9L470.3 221.9Q470.3 222.3 470.0 222.5Q469.7 222.8 469.3 222.8ZM473.8 227.7L473.8 227.7L473.8 233.0L472.5 233.0L472.5 224.2L473.8 224.2L473.8 225.6L473.9 225.6Q474.2 224.9 474.8 224.5Q475.4 224.1 476.4 224.1L476.4 224.1Q477.3 224.1 478.0 224.5Q478.6 224.9 479.0 225.6Q479.4 226.3 479.4 227.4L479.4 227.4L479.4 233.0L478.0 233.0L478.0 227.5Q478.0 226.5 477.5 225.9Q477.0 225.3 476.0 225.3L476.0 225.3Q475.4 225.3 474.9 225.6Q474.4 225.9 474.1 226.4Q473.8 227.0 473.8 227.7ZM485.5 233.2L485.5 233.2Q484.2 233.2 483.3 232.6Q482.4 232.0 481.9 231.0Q481.4 230.0 481.4 228.7L481.4 228.7Q481.4 227.3 481.9 226.3Q482.4 225.3 483.3 224.7Q484.2 224.1 485.3 224.1L485.3 224.1Q486.0 224.1 486.7 224.4Q487.4 224.6 487.9 225.1Q488.4 225.6 488.8 226.4Q489.1 227.3 489.1 228.5L489.1 228.5L489.1 229.1L482.4 229.1L482.4 227.9L487.7 227.9Q487.7 227.2 487.4 226.6Q487.1 226.0 486.6 225.7Q486.1 225.3 485.3 225.3L485.3 225.3Q484.5 225.3 484.0 225.7Q483.4 226.1 483.1 226.8Q482.8 227.4 482.8 228.1L482.8 228.1L482.8 228.9Q482.8 229.9 483.1 230.6Q483.4 231.2 484.1 231.6Q484.7 232.0 485.5 232.0L485.5 232.0Q486.0 232.0 486.4 231.8Q486.9 231.7 487.2 231.3Q487.5 231.0 487.7 230.6L487.7 230.6L489.0 231.0Q488.8 231.6 488.3 232.1Q487.8 232.6 487.1 232.9Q486.4 233.2 485.5 233.2ZM494.8 233.2L494.8 233.2Q493.5 233.2 492.6 232.6Q491.7 232.0 491.2 231.0Q490.7 230.0 490.7 228.7L490.7 228.7Q490.7 227.3 491.2 226.3Q491.7 225.3 492.6 224.7Q493.5 224.1 494.7 224.1L494.7 224.1Q495.3 224.1 496.0 224.4Q496.7 224.6 497.2 225.1Q497.8 225.6 498.1 226.4Q498.4 227.3 498.4 228.5L498.4 228.5L498.4 229.1L491.7 229.1L491.7 227.9L497.0 227.9Q497.0 227.2 496.8 226.6Q496.5 226.0 495.9 225.7Q495.4 225.3 494.7 225.3L494.7 225.3Q493.9 225.3 493.3 225.7Q492.7 226.1 492.4 226.8Q492.1 227.4 492.1 228.1L492.1 228.1L492.1 228.9Q492.1 229.9 492.4 230.6Q492.8 231.2 493.4 231.6Q494.0 232.0 494.8 232.0L494.8 232.0Q495.3 232.0 495.8 231.8Q496.2 231.7 496.5 231.3Q496.8 231.0 497.0 230.6L497.0 230.6L498.3 231.0Q498.1 231.6 497.6 232.1Q497.1 232.6 496.4 232.9Q495.7 233.2 494.8 233.2ZM501.8 233.0L500.5 233.0L500.5 224.2L501.8 224.2L501.8 225.6L501.8 225.6Q502.1 224.9 502.7 224.5Q503.3 224.1 504.1 224.1L504.1 224.1Q504.3 224.1 504.5 224.1Q504.7 224.1 504.8 224.1L504.8 224.1L504.8 225.5Q504.8 225.5 504.5 225.4Q504.3 225.4 504 225.4L504 225.4Q503.4 225.4 502.9 225.7Q502.4 225.9 502.1 226.4Q501.8 226.9 501.8 227.5L501.8 227.5L501.8 233.0Z "/></svg>